<?xml version="1.0" standalone="no"?>
<!DOCTYPE svg PUBLIC "-//W3C//DTD SVG 20010904//EN"
 "http://www.w3.org/TR/2001/REC-SVG-20010904/DTD/svg10.dtd">
<svg version="1.0" xmlns="http://www.w3.org/2000/svg"
 width="512.000000pt" height="512.000000pt" viewBox="0 0 512.000000 512.000000"
 preserveAspectRatio="xMidYMid meet">

<g transform="translate(0.000000,512.000000) scale(0.100000,-0.100000)"
fill="#000000" stroke="none">
<path d="M2136 4040 c-79 -14 -144 -38 -255 -92 l-105 -51 -110 2 c-104 2
-118 0 -220 -34 -60 -19 -141 -53 -179 -75 -38 -22 -71 -40 -74 -40 -10 0
-116 -90 -130 -110 -7 -10 -29 -21 -49 -24 -119 -23 -291 -126 -378 -228 -57
-66 -122 -177 -142 -242 -14 -45 -28 -66 -57 -90 -49 -39 -120 -133 -158 -209
-49 -97 -79 -227 -80 -347 -1 -121 5 -161 37 -244 13 -33 24 -76 24 -97 0
-104 56 -251 118 -312 61 -59 122 -81 227 -80 72 0 108 6 180 30 l89 30 56
-25 c83 -39 184 -41 330 -8 63 14 120 26 126 26 6 0 14 -25 17 -57 8 -74 68
-194 124 -248 69 -66 228 -135 313 -135 17 0 34 -12 54 -36 34 -43 152 -122
221 -148 48 -19 49 -19 59 0 6 10 26 34 44 53 33 34 33 34 22 87 -6 29 -9 73
-6 96 7 48 1 58 -56 101 -49 36 -87 103 -94 163 -4 37 1 69 20 129 l26 80 502
345 c276 190 537 369 579 398 l77 53 122 -31 c185 -47 327 -76 606 -125 213
-38 337 -62 617 -122 33 -7 35 -31 12 -138 -26 -122 -26 -120 71 -194 52 -40
56 -47 81 -166 11 -57 39 -54 77 8 52 84 51 193 -1 309 -25 57 -26 60 -12 136
21 123 17 353 -7 417 -28 74 -157 215 -228 249 -24 11 -32 22 -34 45 -8 112
-90 268 -185 357 -93 86 -154 115 -259 121 l-83 6 -35 60 c-73 124 -221 224
-380 253 -96 19 -231 14 -317 -10 l-53 -14 -32 32 c-40 40 -141 99 -204 121
-68 23 -190 38 -265 32 -68 -5 -198 -34 -212 -46 -4 -4 -40 4 -80 17 -56 19
-97 25 -187 28 -63 2 -137 -1 -164 -6z m551 -582 c6 -7 13 -58 16 -113 10
-181 55 -283 180 -407 56 -56 192 -141 270 -169 20 -7 37 -16 37 -20 0 -3 -20
-17 -44 -29 -50 -27 -62 -24 -163 36 -30 19 -58 34 -62 34 -12 -1 -99 -126
-129 -186 -17 -33 -37 -86 -46 -118 -8 -32 -16 -59 -18 -60 -2 -1 -27 -19 -56
-39 -50 -36 -55 -37 -94 -27 -109 30 -250 6 -327 -55 -24 -19 -47 -35 -52 -35
-9 0 -39 40 -39 52 0 14 55 58 111 87 110 60 221 70 331 32 l56 -19 5 44 c10
90 86 246 169 348 l24 28 -58 60 c-40 42 -72 89 -105 157 l-47 97 -96 -38
c-148 -58 -216 -70 -372 -65 -73 2 -145 8 -159 12 -23 6 -27 4 -32 -24 -20
-96 -104 -249 -185 -334 -81 -85 -221 -167 -308 -182 -153 -25 -228 -33 -317
-34 -56 -1 -122 -4 -147 -7 -60 -8 -163 -58 -214 -103 -23 -20 -48 -36 -56
-36 -44 1 -53 43 -17 78 115 110 207 143 408 146 157 3 299 21 299 39 0 44
-172 224 -265 277 -56 32 -70 45 -70 64 0 44 29 49 91 17 124 -65 231 -166
289 -271 15 -27 31 -54 36 -59 12 -14 134 51 189 101 64 58 110 129 153 238
53 135 52 128 11 150 -19 10 -52 34 -72 52 -20 19 -48 44 -61 56 -39 36 -72
92 -65 111 3 9 15 21 26 27 16 9 24 5 51 -27 65 -78 119 -123 191 -158 146
-72 325 -72 523 0 92 33 118 41 135 43 4 1 5 48 1 106 -4 77 -3 108 7 120 15
18 54 20 67 3z m821 -300 c23 -23 12 -49 -46 -106 -39 -39 -72 -85 -102 -143
-36 -71 -52 -91 -87 -113 -48 -29 -51 -25 -28 50 8 27 14 52 15 57 0 29 63
120 128 187 76 79 97 91 120 68z"/>
<path d="M2760 2249 c-267 -186 -497 -352 -512 -368 -86 -96 -42 -331 68 -357
19 -5 36 -11 36 -14 0 -3 -2 -27 -6 -55 -6 -46 -1 -78 29 -171 5 -17 0 -26
-29 -43 -53 -33 -78 -81 -84 -161 -5 -79 14 -149 56 -198 l27 -33 685 -143
c586 -123 688 -142 705 -131 20 13 669 564 798 677 70 62 82 89 47 108 -18 10
-20 21 -20 109 l0 99 60 49 c33 26 63 56 66 66 6 20 -12 47 -32 47 -11 0 -14
24 -14 115 0 103 2 116 21 134 12 11 19 28 17 43 -3 20 -12 25 -83 40 -44 9
-83 17 -87 17 -5 1 -8 47 -8 104 0 91 2 104 20 115 23 14 26 44 8 59 -13 10
-1238 234 -1268 232 -8 0 -233 -153 -500 -340z m1670 -151 l0 -113 -369 -312
c-202 -172 -380 -322 -394 -333 l-27 -21 0 125 c0 96 3 126 13 126 7 0 181
144 387 320 206 176 378 320 383 320 4 0 7 -51 7 -112z m140 -315 l-1 -118
-383 -324 c-210 -179 -388 -327 -394 -329 -9 -3 -12 30 -12 117 0 90 3 121 13
121 6 0 183 146 392 325 209 178 381 324 383 325 1 0 2 -53 2 -117z m-1610
-71 l605 -127 3 -123 c2 -103 0 -122 -12 -122 -9 0 -284 56 -612 125 -328 69
-598 125 -600 125 -2 0 -4 56 -4 125 0 69 3 125 8 125 4 -1 279 -58 612 -128z
m1526 -397 c-2 -7 -170 -153 -373 -325 -202 -172 -378 -322 -390 -333 l-23
-20 0 126 c0 100 3 127 13 127 8 0 22 9 32 20 10 11 30 20 44 20 20 0 109 71
361 286 l335 286 3 -88 c2 -48 1 -93 -2 -99z m-1416 51 c523 -111 587 -122
607 -110 12 8 25 14 28 14 3 0 5 -56 5 -125 0 -69 -2 -125 -5 -125 -13 0
-1211 252 -1217 257 -7 4 -12 214 -5 213 1 -1 265 -56 587 -124z m-50 -334
l605 -128 3 -122 c2 -112 1 -122 -15 -122 -10 0 -286 56 -613 125 -327 69
-596 125 -597 125 -2 0 -3 56 -3 125 0 69 3 125 8 124 4 0 279 -57 612 -127z"/>
</g>
</svg>
