<?xml version="1.0" standalone="no"?>
<!DOCTYPE svg PUBLIC "-//W3C//DTD SVG 20010904//EN"
 "http://www.w3.org/TR/2001/REC-SVG-20010904/DTD/svg10.dtd">
<svg version="1.0" xmlns="http://www.w3.org/2000/svg"
 width="512.000000pt" height="512.000000pt" viewBox="0 0 512.000000 512.000000"
 preserveAspectRatio="xMidYMid meet">

<g transform="translate(0.000000,512.000000) scale(0.100000,-0.100000)"
fill="#000000" stroke="none">
<path d="M2136 4040 c-79 -14 -144 -38 -255 -92 l-105 -51 -110 2 c-104 2
-118 0 -220 -34 -60 -19 -141 -53 -179 -75 -38 -22 -71 -40 -74 -40 -10 0
-116 -90 -130 -110 -7 -10 -29 -21 -49 -24 -119 -23 -291 -126 -378 -228 -57
-66 -122 -177 -142 -242 -14 -45 -28 -66 -57 -90 -49 -39 -120 -133 -158 -209
-49 -97 -79 -227 -80 -347 -1 -121 5 -161 37 -244 13 -33 24 -76 24 -97 0
-104 56 -251 118 -312 61 -59 122 -81 227 -80 72 0 108 6 180 30 l89 30 56
-25 c83 -39 184 -41 330 -8 63 14 120 26 126 26 6 0 14 -25 17 -57 8 -74 68
-194 124 -248 69 -66 228 -135 313 -135 17 0 34 -11 53 -35 55 -69 193 -147
319 -181 64 -17 225 -23 267 -9 l21 6 0 459 0 460 25 65 c41 109 57 123 273
241 271 148 361 200 553 321 145 90 174 105 220 110 l54 5 480 -270 c448 -251
483 -273 522 -322 50 -64 64 -121 72 -297 l6 -122 43 19 c107 48 163 128 164
233 0 70 -14 133 -44 192 -19 37 -20 44 -7 125 21 133 17 350 -7 415 -28 74
-157 215 -228 249 -24 11 -32 22 -34 45 -8 112 -90 268 -185 357 -93 86 -154
115 -259 121 l-83 6 -35 60 c-73 124 -221 224 -380 253 -96 19 -231 14 -317
-10 l-53 -14 -32 32 c-40 40 -141 99 -204 121 -68 23 -190 38 -265 32 -68 -5
-198 -34 -212 -46 -4 -4 -40 4 -80 17 -56 19 -97 25 -187 28 -63 2 -137 -1
-164 -6z m551 -582 c6 -7 13 -58 16 -113 3 -55 14 -130 25 -167 37 -129 154
-264 300 -346 91 -51 179 -88 187 -80 5 4 38 112 49 159 11 45 54 107 124 179
76 79 97 91 120 68 23 -23 12 -49 -46 -106 -58 -57 -133 -183 -146 -247 -5
-24 -22 -40 -81 -77 l-74 -46 -46 14 c-43 13 -117 49 -172 84 -12 8 -24 12
-26 10 -98 -126 -139 -196 -167 -290 -15 -53 -19 -57 -90 -98 -57 -32 -82 -41
-105 -37 -118 20 -228 -1 -302 -59 -25 -20 -50 -36 -54 -36 -9 0 -39 40 -39
52 0 14 55 58 111 87 110 60 221 70 331 32 l56 -19 5 44 c10 90 86 246 169
348 l24 28 -58 60 c-40 42 -72 89 -105 157 l-47 97 -96 -38 c-148 -58 -216
-70 -372 -65 -73 2 -145 8 -159 12 -23 6 -27 4 -32 -24 -20 -96 -104 -249
-185 -334 -81 -85 -221 -167 -308 -182 -153 -25 -228 -33 -317 -34 -56 -1
-122 -4 -147 -7 -60 -8 -163 -58 -214 -103 -23 -20 -48 -36 -56 -36 -44 1 -53
43 -17 78 115 110 207 143 408 146 157 3 299 21 299 39 0 44 -172 224 -265
277 -56 32 -70 45 -70 64 0 44 29 49 91 17 124 -65 231 -166 289 -271 15 -27
31 -54 36 -59 12 -14 134 51 189 101 64 58 110 129 153 238 53 135 52 128 11
150 -19 10 -52 34 -72 52 -20 19 -48 44 -61 56 -39 36 -72 92 -65 111 3 9 15
21 26 27 16 9 24 5 51 -27 65 -78 119 -123 191 -158 146 -72 325 -72 523 0 92
33 118 41 135 43 4 1 5 48 1 106 -4 77 -3 108 7 120 15 18 54 20 67 3z"/>
<path d="M3525 2732 c-59 -28 -824 -470 -862 -499 -37 -27 -43 -61 -15 -85 9
-9 212 -129 451 -266 461 -267 480 -276 557 -249 43 14 825 462 882 504 31 23
41 54 24 80 -4 6 -207 127 -450 268 -393 227 -449 257 -495 261 -38 4 -63 0
-92 -14z m181 -461 c43 -20 74 -54 74 -82 0 -28 -47 -77 -86 -89 -86 -29 -226
-1 -253 48 -27 50 6 106 74 130 49 17 145 14 191 -7z"/>
<path d="M2576 2021 c-15 -17 -16 -60 -14 -499 l3 -480 30 -43 c26 -36 87 -75
460 -290 237 -137 438 -249 447 -249 9 0 24 7 32 16 14 14 16 72 16 490 0 447
-1 477 -19 512 -10 20 -30 47 -43 58 -20 18 -744 441 -835 488 -41 21 -56 20
-77 -3z m162 -115 c133 -70 182 -296 64 -296 -40 0 -105 50 -138 106 -74 126
-28 244 74 190z m325 -523 c62 -32 126 -158 113 -224 -9 -46 -24 -59 -68 -59
-54 0 -129 69 -158 146 -24 65 -25 86 -5 124 22 42 54 46 118 13z m326 -531
c51 -41 94 -125 95 -182 2 -107 -83 -121 -170 -28 -43 45 -64 89 -71 148 -5
43 -3 51 21 75 33 33 73 29 125 -13z"/>
<path d="M4165 1802 c-225 -131 -422 -246 -437 -256 -15 -10 -39 -41 -53 -69
l-25 -51 0 -463 c0 -456 0 -463 21 -484 14 -14 28 -19 44 -15 48 12 840 478
877 516 20 21 42 56 48 79 7 27 10 188 8 496 -3 439 -4 457 -22 471 -11 8 -27
14 -35 14 -9 0 -200 -107 -426 -238z m-220 -262 c22 -25 23 -91 2 -142 -22
-51 -92 -125 -132 -138 -106 -35 -130 108 -39 228 53 68 132 93 169 52z m621
-325 c13 -19 15 -38 11 -76 -19 -157 -198 -272 -237 -153 -19 56 10 134 74
200 47 48 56 54 94 54 33 0 45 -5 58 -25z"/>
</g>
</svg>
