<svg xmlns="http://www.w3.org/2000/svg" viewBox="0 0 512 512">
 <!-- Created with SVG Editor - http://github.com/mzalive/SVG Editor/ -->

 <g>
  <title>background</title>
  <rect fill="#fff" id="canvas_background" height="514" width="514" y="-1" x="-1"/>
  <g display="none" overflow="visible" y="0" x="0" height="100%" width="100%" id="canvasGrid">
   <rect fill="url(#gridpattern)" stroke-width="0" y="0" x="0" height="100%" width="100%"/>
  </g>
 </g>
 <g>
  <title>Layer 1</title>
  <g stroke="null" id="svg_7">
   <g id="svg_4" fill="#000000" transform="matrix(0.1044535659950064,0,0,-0.1044535659950064,-3835.8153589190383,-2062.7806315531925) ">
    <path stroke="null" id="svg_5" d="m37335.181015,-20296.504074c-18,-9 -43,-30 -55,-47l-22,-31l-3,-1198c-3,-1328 -7,-1241 62,-1290l31,-22l567,-3l568,-2l2,-568l3,-567l22,-31c49,-69 -38,-65 1290,-62l1198,3l31,22c68,49 64,-35 64,1278c0,1313 4,1229 -64,1278l-31,22l-567,3l-568,2l-2,568l-3,567l-22,31c-49,68 36,64 -1280,64c-1074,0 -1191,-2 -1221,-17zm1948,-803l0,-410l-341,0c-377,0 -387,-2 -432,-64c-20,-28 -22,-46 -28,-206c-5,-160 -8,-180 -31,-235c-15,-33 -50,-151 -79,-262l-52,-203l-308,0l-308,0l90,266c49,147 103,291 120,321c48,84 118,147 216,194l86,42l-66,22c-90,31 -144,64 -199,123c-65,69 -95,134 -110,236c-21,150 15,286 104,382c97,107 228,163 458,198c14,2 217,4 453,5l427,1l0,-410zm1497,-767c-3,-5 -199,-324 -436,-711c-237,-386 -431,-704 -431,-707c0,-3 187,-5 415,-5l415,0l0,-240l0,-240l-1005,0c-553,0 -1005,2 -1005,5c0,2 196,323 435,712l435,708l-400,3l-400,2l0,240l0,240l991,0c544,0 988,-3 986,-7z"/>
    <path stroke="null" id="svg_6" d="m38570.181015,-21079.504074c-63,-11 -125,-52 -143,-95c-18,-44 -18,-128 0,-163c39,-75 112,-113 228,-120l88,-5l-2,194l-3,194l-60,2c-33,0 -82,-3 -108,-7z"/>
   </g>
  </g>
 </g>
</svg>